<?xml version="1.0" encoding="utf-8"?>
<svg version="1.1" xmlns:xlink="http://www.w3.org/1999/xlink" width="414px" height="275px" xmlns="http://www.w3.org/2000/svg">
  <g transform="matrix(1 0 0 1 -440 -149 )">
    <path d="M 440 149  L 854 149  L 854 424  L 440 424  L 440 149  " fill-rule="nonzero" fill="#cccccc" stroke="none" />
    <path d="M 459 168  L 835 168  L 835 405  L 459 405  L 459 168  " fill-rule="nonzero" fill="#ffffff" stroke="none" />
    <path d="M 675.905 231.5  C 664.355 231.5  655.28 222.425  655.28 210.875  C 655.28 199.325  664.355 190.25  675.905 190.25  C 687.455 190.25  696.53 199.325  696.53 210.875  C 696.53 222.425  687.455 231.5  675.905 231.5  " fill-rule="nonzero" fill="#cccccc" stroke="none" />
    <path d="M 466 398  L 466 275.35  L 556.5 219.6  L 683.2 309.123188405797  L 755.6 253.05  L 828 309.123188405797  L 828 398  L 466 398  " fill-rule="nonzero" fill="#169bd5" stroke="none" />
  </g>
</svg>