<?xml version="1.0" encoding="utf-8"?>
<svg version="1.1" xmlns:xlink="http://www.w3.org/1999/xlink" width="497px" height="329px" xmlns="http://www.w3.org/2000/svg">
  <g transform="matrix(1 0 0 1 -939 -529 )">
    <path d="M 939 529  L 1436 529  L 1436 858  L 939 858  L 939 529  " fill-rule="nonzero" fill="#cccccc" stroke="none" />
    <path d="M 962 552  L 1413 552  L 1413 835  L 962 835  L 962 552  " fill-rule="nonzero" fill="#ffffff" stroke="none" />
    <path d="M 1222.115 627.7  C 1208.297 627.7  1197.44 616.843  1197.44 603.025  C 1197.44 589.207  1208.297 578.35  1222.115 578.35  C 1235.933 578.35  1246.79 589.207  1246.79 603.025  C 1246.79 616.843  1235.933 627.7  1222.115 627.7  " fill-rule="nonzero" fill="#cccccc" stroke="none" />
    <path d="M 970 827  L 970 680.15  L 1078.75 613.4  L 1231 720.952112676056  L 1318 653.45  L 1405 720.952112676056  L 1405 827  L 970 827  " fill-rule="nonzero" fill="#169bd5" stroke="none" />
  </g>
</svg>