<?xml version="1.0" encoding="utf-8"?>
<svg version="1.1" xmlns:xlink="http://www.w3.org/1999/xlink" width="471px" height="333px" xmlns="http://www.w3.org/2000/svg">
  <g transform="matrix(1 0 0 1 -405 -905 )">
    <path d="M 405 905  L 876 905  L 876 1238  L 405 1238  L 405 905  " fill-rule="nonzero" fill="#cccccc" stroke="none" />
    <path d="M 428 928  L 853 928  L 853 1215  L 428 1215  L 428 928  " fill-rule="nonzero" fill="#ffffff" stroke="none" />
    <path d="M 674.895 1004.9  C 660.909 1004.9  649.92 993.911  649.92 979.925  C 649.92 965.939  660.909 954.95  674.895 954.95  C 688.881 954.95  699.87 965.939  699.87 979.925  C 699.87 993.911  688.881 1004.9  674.895 1004.9  " fill-rule="nonzero" fill="#cccccc" stroke="none" />
    <path d="M 437 1207  L 437 1058.5  L 539 991  L 681.8 1092.46496815287  L 763.4 1031.5  L 845 1092.46496815287  L 845 1207  L 437 1207  " fill-rule="nonzero" fill="#169bd5" stroke="none" />
  </g>
</svg>